<?xml version="1.0" encoding="UTF-8"?>
<svg width="20px" height="20px" viewBox="0 0 20 20" version="1.1" xmlns="http://www.w3.org/2000/svg" xmlns:xlink="http://www.w3.org/1999/xlink">
    <!-- Generator: Sketch 52.5 (67469) - http://www.bohemiancoding.com/sketch -->
    <title>个人中心_ic_体检订单</title>
    <desc>Created with Sketch.</desc>
    <g id="个人中心_ic_体检订单" stroke="none" stroke-width="1" fill="none" fill-rule="evenodd">
        <g id="订单">
            <rect id="Rectangle" fill="#000000" opacity="0" x="0" y="0" width="20" height="20"></rect>
            <path d="M11.7928245,1.34081094 L8.00671145,1.34081094 C7.54232629,1.34081094 7.17105803,1.7539908 7.17105803,2.26470453 C7.17105803,2.77659746 7.54300584,3.1909965 8.00671145,3.1909965 L11.8162486,3.1909965 C12.2572696,3.1909965 12.6290975,2.77659746 12.6290975,2.26470453 C12.6291974,1.7539708 12.2578092,1.34081094 11.7928245,1.34081094 Z M15.9039171,1.95745285 L14.0185354,1.95745285 C14.0377024,2.05868422 14.0487749,2.1610748 14.0487749,2.26470453 C14.0493545,3.04239725 13.485197,3.80779832 12.814112,3.80779832 L7.02185918,3.80779832 C6.31559803,3.80779832 5.75068104,3.04239727 5.75068104,2.26470453 C5.75136057,2.16107479 5.76243307,2.05868422 5.78160008,1.95745285 L3.87343381,1.95745285 C2.33957377,1.95745285 1.96272926,2.82704326 1.96272926,4.08149275 L1.96272926,16.5074679 C1.96272926,17.8550343 2.50236338,18.6092429 3.98925527,18.6092429 L15.7879757,18.6092429 C17.2748876,18.6092429 17.9976976,18.0179039 17.9976976,16.5081475 L17.9976976,4.08147275 C17.9978175,2.82714318 17.3210963,1.95755277 15.9039371,1.95755277 L15.9039371,1.95745285 L15.9039171,1.95745285 Z M13.9668505,14.2261746 L5.7679893,14.2261746 C5.46579418,14.2261746 5.16411873,13.855466 5.16411873,13.5527912 C5.16411873,13.2511357 5.41944562,12.9927309 5.72166072,12.9927309 L13.8971178,12.9927309 C14.1992329,12.9927309 14.4545398,13.2276117 14.4774643,13.5527912 C14.4774643,13.8555659 14.2689656,14.2261746 13.9668505,14.2261746 Z M14.0001679,10.9360454 L5.80120678,10.9360454 C5.4989717,10.9360454 5.30654217,10.6111057 5.30654217,10.308211 C5.30654217,10.0054163 5.56198898,9.70260162 5.86408416,9.70260162 L14.0395412,9.70260162 C14.3417763,9.70260162 14.5970832,9.98315141 14.6198877,10.308211 C14.6199077,10.6110057 14.3017234,10.9360454 14.0001679,10.9360454 Z M14.0001679,7.55693641 L5.80120678,7.55693641 C5.4989717,7.55693641 5.30654217,7.2318768 5.30654217,6.92910207 C5.30654217,6.62628738 5.56198898,6.32349268 5.86408416,6.32349268 L14.0395412,6.32349268 C14.3417763,6.32349268 14.5970832,6.60416238 14.6198877,6.92910207 C14.6199077,7.2318768 14.3017234,7.55693641 14.0001679,7.55693641 Z" id="Shape" fill="#3D3D45" fill-rule="nonzero"></path>
        </g>
    </g>
</svg>