<svg xmlns="http://www.w3.org/2000/svg" width="24" height="24" viewBox="0 0 24 24">
  <g fill="none" transform="translate(2 2)">
    <path stroke="#3D3D45" stroke-linecap="round" stroke-linejoin="round" stroke-width="1.5" d="M16,19 L0,19 L0,15.5714286 C0,13.0466983 2.20413662,11 4.57142857,11 L8,11"/>
    <path stroke="#3D3D45" stroke-width="1.5" d="M8.5,0 L8.5,0 C11.5375661,-5.57991845e-16 14,2.46243388 14,5.5 L14,5.5 C14,8.53756612 11.5375661,11 8.5,11 L8.5,11 C5.46243388,11 3,8.53756612 3,5.5 L3,5.5 C3,2.46243388 5.46243388,5.57991845e-16 8.5,0 Z"/>
    <g fill="#4FD9EF" transform="rotate(135 8.096 10.89)">
      <path d="M2.31987755,0.174792829 L5.17999052,0.174792829 C6.3646881,0.174792829 7.32507525,1.13517997 7.32507525,2.31987755 L7.32507525,2.31987755 C7.32507525,3.50457514 6.3646881,4.46496228 5.17999052,4.46496228 L2.31987755,4.46496228 C1.13517997,4.46496228 0.174792829,3.50457514 0.174792829,2.31987755 L0.174792829,2.31987755 C0.174792829,1.13517997 1.13517997,0.174792829 2.31987755,0.174792829 Z"/>
      <path d="M3.78763994,1.61722891 L6.64775291,1.61722891 C7.83245049,1.61722891 8.79283763,2.57761605 8.79283763,3.76231363 L8.79283763,3.76231363 C8.79283763,4.94701122 7.83245049,5.90739836 6.64775291,5.90739836 L3.78763994,5.90739836 C2.60294236,5.90739836 1.64255521,4.94701122 1.64255521,3.76231363 L1.64255521,3.76231363 C1.64255521,2.57761605 2.60294236,1.61722891 3.78763994,1.61722891 Z" transform="rotate(90 5.218 3.762)"/>
    </g>
  </g>
</svg>
