<?xml version="1.0" encoding="UTF-8"?>
<svg width="20px" height="20px" viewBox="0 0 20 20" version="1.1" xmlns="http://www.w3.org/2000/svg" xmlns:xlink="http://www.w3.org/1999/xlink">
    <!-- Generator: Sketch 52.5 (67469) - http://www.bohemiancoding.com/sketch -->
    <title>个人中心_ic_常用体检人</title>
    <desc>Created with Sketch.</desc>
    <g id="个人中心_ic_常用体检人" stroke="none" stroke-width="1" fill="none" fill-rule="evenodd">
        <path d="M4,2 L16,2 C17.1045695,2 18,2.8954305 18,4 L18,16 C18,17.1045695 17.1045695,18 16,18 L4,18 C2.8954305,18 2,17.1045695 2,16 L2,4 C2,2.8954305 2.8954305,2 4,2 Z M10,4 C8.34314575,4 7,5.34314575 7,7 C7,8.65685425 8.34314575,10 10,10 C11.6568542,10 13,8.65685425 13,7 L13,4 L10,4 Z M7,11 C5.8954305,11 5,11.8954305 5,13 L5,15 L15,15 L15,13 C15,11.8954305 14.1045695,11 13,11 L7,11 Z" id="Combined-Shape" fill="#3D3D45" fill-rule="nonzero"></path>
    </g>
</svg>