<?xml version="1.0" encoding="UTF-8"?>
<svg width="20px" height="20px" viewBox="0 0 20 20" version="1.1" xmlns="http://www.w3.org/2000/svg" xmlns:xlink="http://www.w3.org/1999/xlink">
    <!-- Generator: Sketch 52.5 (67469) - http://www.bohemiancoding.com/sketch -->
    <title>个人中心_ic_代约</title>
    <desc>Created with Sketch.</desc>
    <g id="个人中心_ic_代约" stroke="none" stroke-width="1" fill="none" fill-rule="evenodd">
        <path d="M3,2 L15,2 C16.1045695,2 17,2.8954305 17,4 L17,16 C17,17.1045695 16.1045695,18 15,18 L3,18 C1.8954305,18 1,17.1045695 1,16 L1,4 C1,2.8954305 1.8954305,2 3,2 Z M7.232,4.856 L6.288,4.856 C6.14933264,5.32000232 5.92400156,5.77999772 5.612,6.236 C5.29999844,6.69200228 4.9573352,7.053332 4.584,7.32 L4.392,8.496 C4.7120016,8.30399904 5.03999832,8.05600152 5.376,7.752 L4.776,12.064 L5.672,12.064 L6.392,6.616 C6.82400216,6.00799696 7.10399936,5.42133616 7.232,4.856 Z M11.664,6.76 L9.104,6.96 C9.0773332,6.09066232 9.07466656,5.389336 9.096,4.856 L8.216,4.856 C8.1893332,5.58133696 8.19466648,6.3039964 8.232,7.024 L6.56,7.152 L6.456,7.88 L8.272,7.744 C8.33600032,8.44267016 8.44533256,9.17999612 8.6,9.956 C8.75466744,10.7320039 8.93066568,11.4319969 9.128,12.056 L10.872,12.056 L11.216,11.344 L9.88,11.344 C9.73066592,10.8799977 9.58666736,10.3066701 9.448,9.624 C9.30933264,8.94132992 9.20800032,8.29066976 9.144,7.672 L11.568,7.488 L11.664,6.76 Z M10.856,6.496 C10.6799991,5.94666392 10.5413338,5.46933536 10.44,5.064 L9.672,5.064 C9.7520004,5.49600216 9.858666,5.97333072 9.992,6.496 L10.856,6.496 Z" id="Combined-Shape" fill="#3D3D45" fill-rule="nonzero"></path>
        <g id="Group" transform="translate(11.000000, 9.000000)" fill="#3D3D45" fill-rule="nonzero" stroke="#FFFFFF">
            <path d="M4.5,-0.5 L7.5,-0.5 L7.5,2.5 C7.5,4.15685425 6.15685425,5.5 4.5,5.5 C2.84314575,5.5 1.5,4.15685425 1.5,2.5 C1.5,0.843145751 2.84314575,-0.5 4.5,-0.5 Z" id="Rectangle"></path>
            <path d="M2,5.5 L6,5.5 C7.38071187,5.5 8.5,6.61928813 8.5,8 L8.5,9.5 L-0.5,9.5 L-0.5,8 C-0.5,6.61928813 0.619288125,5.5 2,5.5 Z" id="Rectangle"></path>
        </g>
    </g>
</svg>