<?xml version="1.0" encoding="UTF-8"?>
<svg width="20px" height="20px" viewBox="0 0 20 20" version="1.1" xmlns="http://www.w3.org/2000/svg" xmlns:xlink="http://www.w3.org/1999/xlink">
    <!-- Generator: Sketch 52.5 (67469) - http://www.bohemiancoding.com/sketch -->
    <title>个人中心_ic_体检报告</title>
    <desc>Created with Sketch.</desc>
    <g id="个人中心_ic_体检报告" stroke="none" stroke-width="1" fill="none" fill-rule="evenodd">
        <g id="订单">
            <rect id="Rectangle" fill="#000000" opacity="0" x="0" y="0" width="20" height="20"></rect>
            <path d="M8.75,8.75 L6.25,8.75 L6.25,11.25 L8.75,11.25 L8.75,13.75 L11.25,13.75 L11.25,11.25 L13.75,11.25 L13.75,8.75 L11.25,8.75 L11.25,6.25 L8.75,6.25 L8.75,8.75 Z M11.7928245,1.34081094 C12.2578092,1.34081094 12.6291974,1.7539708 12.6290975,2.26470453 C12.6290975,2.77659746 12.2572696,3.1909965 11.8162486,3.1909965 L8.00671145,3.1909965 C7.54300584,3.1909965 7.17105803,2.77659746 7.17105803,2.26470453 C7.17105803,1.7539908 7.54232629,1.34081094 8.00671145,1.34081094 L11.7928245,1.34081094 Z M15.9039171,1.95745285 L15.9039371,1.95745285 L15.9039371,1.95755277 C17.3210963,1.95755277 17.9978175,2.82714318 17.9976976,4.08147275 L17.9976976,16.5081475 C17.9976976,18.0179039 17.2748876,18.6092429 15.7879757,18.6092429 L3.98925527,18.6092429 C2.50236338,18.6092429 1.96272926,17.8550343 1.96272926,16.5074679 L1.96272926,4.08149275 C1.96272926,2.82704326 2.33957377,1.95745285 3.87343381,1.95745285 L5.78160008,1.95745285 C5.76243307,2.05868422 5.75136057,2.16107479 5.75068104,2.26470453 C5.75068104,3.04239727 6.31559803,3.80779832 7.02185918,3.80779832 L12.814112,3.80779832 C13.485197,3.80779832 14.0493545,3.04239725 14.0487749,2.26470453 C14.0487749,2.1610748 14.0377024,2.05868422 14.0185354,1.95745285 L15.9039171,1.95745285 Z" id="Combined-Shape" fill="#3D3D45" fill-rule="nonzero"></path>
        </g>
    </g>
</svg>