<?xml version="1.0" encoding="UTF-8"?>
<svg width="18px" height="18px" viewBox="0 0 18 18" version="1.1" xmlns="http://www.w3.org/2000/svg" xmlns:xlink="http://www.w3.org/1999/xlink">
    <!-- Generator: Sketch 52.5 (67469) - http://www.bohemiancoding.com/sketch -->
    <title>checkbox_ic_choose</title>
    <desc>Created with Sketch.</desc>
    <g id="Page-1" stroke="none" stroke-width="1" fill="none" fill-rule="evenodd">
        <g id="个人中心_代约人" transform="translate(-322.000000, -157.000000)" fill="#32CBE4" fill-rule="nonzero">
            <g id="Group-2" transform="translate(16.000000, 134.000000)">
                <path d="M315,41 C310.029437,41 306,36.9705627 306,32 C306,27.0294373 310.029437,23 315,23 C319.970563,23 324,27.0294373 324,32 C324,36.9705627 319.970563,41 315,41 Z M319.557257,29.1397812 C319.151894,28.7646821 318.519204,28.7892158 318.144105,29.1945787 L314.041489,33.6282031 L312.212829,31.7278009 C311.829888,31.3298371 311.196841,31.3176582 310.798877,31.7005985 C310.400913,32.0835388 310.388734,32.7165866 310.771674,33.1145504 L313.335134,35.778579 C313.348538,35.7925096 313.362344,35.8060486 313.376534,35.8191788 C313.781897,36.1942779 314.414586,36.1697442 314.789685,35.7643812 L319.612054,30.5529327 C319.987153,30.1475698 319.96262,29.5148803 319.557257,29.1397812 Z" id="Combined-Shape-Copy"></path>
            </g>
        </g>
    </g>
</svg>