<svg xmlns="http://www.w3.org/2000/svg" width="16" height="16" viewBox="0 0 16 16">
  <path fill="#3D3D45" d="M13.375,4.73846154 C13.0716667,4.73846154 12.8333333,4.99907692 12.8333333,5.33076923 L12.8333333,13.0307692 C12.8333333,13.6823077 12.3458333,14.2153846 11.75,14.2153846 L10.6666667,14.2153846 L10.6666667,5.33076923 C10.6666667,4.99907692 10.4283333,4.73846154 10.125,4.73846154 C9.82166667,4.73846154 9.58333333,4.99907692 9.58333333,5.33076923 L9.58333333,14.2153846 L7.41666667,14.2153846 L7.41666667,5.33076923 C7.41666667,4.99907692 7.17833333,4.73846154 6.875,4.73846154 C6.57166667,4.73846154 6.33333333,4.99907692 6.33333333,5.33076923 L6.33333333,14.2153846 L5.25,14.2153846 C4.65416667,14.2153846 4.16666667,13.6823077 4.16666667,13.0307692 L4.16666667,5.33076923 C4.16666667,4.99907692 3.92833333,4.73846154 3.625,4.73846154 C3.32166667,4.73846154 3.08333333,4.99907692 3.08333333,5.33076923 L3.08333333,13.0307692 C3.08333333,14.3338462 4.05833333,15.4 5.25,15.4 L11.75,15.4 C12.9416667,15.4 13.9166667,14.3338462 13.9166667,13.0307692 L13.9166667,5.33076923 C13.9166667,4.99907692 13.6783333,4.73846154 13.375,4.73846154 Z M14.4583333,2.36923077 L2.54166667,2.36923077 C2.23833333,2.36923077 2,2.62984615 2,2.96153846 C2,3.29323077 2.23833333,3.55384615 2.54166667,3.55384615 L14.4583333,3.55384615 C14.7616667,3.55384615 15,3.29323077 15,2.96153846 C15,2.62984615 14.7616667,2.36923077 14.4583333,2.36923077 Z M5.79166667,1.18461538 L11.2083333,1.18461538 C11.5116667,1.18461538 11.75,0.924 11.75,0.592307692 C11.75,0.260615385 11.5116667,0 11.2083333,0 L5.79166667,0 C5.48833333,0 5.25,0.260615385 5.25,0.592307692 C5.25,0.924 5.48833333,1.18461538 5.79166667,1.18461538 Z"/>
</svg>
