<svg xmlns="http://www.w3.org/2000/svg" width="14" height="14" viewBox="0 0 14 14">
  <g fill="none" transform="translate(2 1)">
    <path stroke="#32CBE4" stroke-linecap="round" stroke-linejoin="round" d="M4.66666667,11.0833333 L0,11.0833333 L0,9.08333333 C0,7.610574 1.28574636,6.41666667 2.66666667,6.41666667 L4.66666667,6.41666667"/>
    <path stroke="#32CBE4" d="M4.95833333,0 L4.95833333,0 C6.73024691,-3.25495243e-16 8.16666667,1.43641976 8.16666667,3.20833333 L8.16666667,3.20833333 C8.16666667,4.98024691 6.73024691,6.41666667 4.95833333,6.41666667 L4.95833333,6.41666667 C3.18641976,6.41666667 1.75,4.98024691 1.75,3.20833333 L1.75,3.20833333 C1.75,1.43641976 3.18641976,7.69584453e-16 4.95833333,4.4408921e-16 Z"/>
    <path fill="#32CBE4" d="M10.4646926,9 L6.53576311,9 C6.23986931,9 6,8.77473766 6,8.49686249 C6,8.21898731 6.23986931,7.99372497 6.53576311,7.99372497 L9.17171759,7.99372497 L9.01456042,7.84613798 C8.81785763,7.64789525 8.82366174,7.33896887 9.02768894,7.14736602 C9.23171614,6.95576316 9.56067463,6.9503125 9.77177227,7.13503696 L10.8432985,8.14131198 C10.9963269,8.28520047 11.0420724,8.5014525 10.9592283,8.68934513 C10.8763842,8.87723776 10.681242,8.99982112 10.4646926,9 Z M7.60683365,12 C7.46478832,11.9998833 7.32860642,11.9471283 7.22822773,11.8533333 L6.15670152,10.8533333 C6.00367308,10.7103421 5.95792756,10.4954386 6.04077169,10.3087177 C6.12361582,10.1219967 6.31875796,10.0001778 6.53530744,10 L10.4642369,10 C10.7601307,10 11,10.2238576 11,10.5 C11,10.7761424 10.7601307,11 10.4642369,11 L7.82828241,11 L7.98543959,11.1466667 C8.13846804,11.2896579 8.18421355,11.5045614 8.10136942,11.6912823 C8.01852528,11.8780033 7.82338314,11.9998222 7.60683365,12 Z"/>
  </g>
</svg>
