<?xml version="1.0" encoding="UTF-8"?>
<svg width="18px" height="18px" viewBox="0 0 18 18" version="1.1" xmlns="http://www.w3.org/2000/svg" xmlns:xlink="http://www.w3.org/1999/xlink">
    <!-- Generator: Sketch 52.1 (67048) - http://www.bohemiancoding.com/sketch -->
    <title>ic_单选_choose</title>
    <desc>Created with Sketch.</desc>
    <g id="Page-1" stroke="none" stroke-width="1" fill="none" fill-rule="evenodd">
        <g id="男性主题方案" transform="translate(-341.000000, -585.000000)" fill="#32CBE4" fill-rule="nonzero">
            <g id="Group-9" transform="translate(0.000000, 352.000000)">
                <g id="加项包-copy-3" transform="translate(16.000000, 200.000000)">
                    <g id="Group-2" transform="translate(0.000000, 26.000000)">
                        <g id="Group-3">
                            <path d="M334,25 C329.029437,25 325,20.9705627 325,16 C325,11.0294373 329.029437,7 334,7 C338.970563,7 343,11.0294373 343,16 C343,20.9705627 338.970563,25 334,25 Z M338.557257,13.1397812 C338.151894,12.7646821 337.519204,12.7892158 337.144105,13.1945787 L333.041489,17.6282031 L331.212829,15.7278009 C330.829888,15.3298371 330.196841,15.3176582 329.798877,15.7005985 C329.400913,16.0835388 329.388734,16.7165866 329.771674,17.1145504 L332.335134,19.778579 C332.348538,19.7925096 332.362344,19.8060486 332.376534,19.8191788 C332.781897,20.1942779 333.414586,20.1697442 333.789685,19.7643812 L338.612054,14.5529327 C338.987153,14.1475698 338.96262,13.5148803 338.557257,13.1397812 Z" id="ic_单选_choose"></path>
                        </g>
                    </g>
                </g>
            </g>
        </g>
    </g>
</svg>