<?xml version="1.0" encoding="UTF-8"?>
<svg width="21px" height="20px" viewBox="0 0 21 20" version="1.1" xmlns="http://www.w3.org/2000/svg" xmlns:xlink="http://www.w3.org/1999/xlink">
    <!-- Generator: Sketch 52.1 (67048) - http://www.bohemiancoding.com/sketch -->
    <title>加项包_ic_购物车</title>
    <desc>Created with Sketch.</desc>
    <g id="Page-1" stroke="none" stroke-width="1" fill="none" fill-rule="evenodd">
        <g id="自费选择套餐2-copy-28" transform="translate(-17.000000, -627.000000)">
            <g id="Group-9" transform="translate(0.000000, 607.000000)">
                <g id="购物车" transform="translate(16.000000, 18.000000)">
                    <g id="加项包_ic_购物车">
                        <rect id="Rectangle" fill="#000000" opacity="0" x="0" y="0" width="24" height="24"></rect>
                        <path d="M7.37259843,20.798334 C7.37259843,21.4619695 7.91933065,21.9999524 8.59375903,21.9999524 C9.2681874,21.9999524 9.81491963,21.4619695 9.81491963,20.798334 C9.81491963,20.1346985 9.2681874,19.5967157 8.59375903,19.5967157 C7.91933065,19.5967157 7.37259843,20.1346985 7.37259843,20.798334 Z M17.6018357,20.7983578 C17.6018357,21.2276632 17.8345922,21.6243578 18.2124281,21.8390105 C18.590264,22.0536632 19.055777,22.0536632 19.4336129,21.8390105 C19.8114488,21.6243578 20.0442052,21.2276632 20.0442052,20.7983578 C20.0442052,20.1347092 19.4974622,19.5967156 18.8230205,19.5967156 C18.1485787,19.5967156 17.6018357,20.1347092 17.6018357,20.7983578 Z M19.7956874,17.5682893 C19.7947936,17.5682893 19.7938755,17.5682893 19.7929575,17.5682893 L8.08239742,17.6106745 L7.70960859,17.5711657 C7.58968612,17.5209121 7.0613653,17.2291842 6.86657583,15.9376132 L5.36372786,4.82242921 C5.36377619,4.80460033 5.36338965,4.78670016 5.36208509,4.76863356 C5.27538046,3.57823549 4.7682949,2.9032582 4.3581813,2.54665698 C3.89762489,2.14614921 3.44789143,2.04045967 3.36241889,2.02332018 C3.31627628,2.01407294 3.26933644,2.00929479 3.22225164,2.00898576 L1.72921199,2 C1.72769002,2 1.72619219,2 1.7246702,2 C1.32649086,2 1.00245376,2.31642681 1.00001376,2.70878084 C0.997573751,3.1026325 1.32006472,3.42388499 1.72032168,3.42628594 L3.1095042,3.43465363 C3.2665582,3.49405943 3.68145515,3.71592191 3.85136144,4.43528121 C3.85240025,4.45306254 3.85389808,4.47089141 3.85633808,4.48881538 L5.43042927,16.1309257 C5.43088829,16.1342775 5.4313473,16.1376056 5.43185462,16.1409574 C5.80101967,18.6035524 7.26448939,18.9432756 7.43014379,18.9739175 C7.44876994,18.9773644 7.46754105,18.9800744 7.48638463,18.9820713 L7.96720997,19.0330381 C7.99301118,19.0357718 8.01893319,19.0371506 8.04485518,19.0371506 C8.04572488,19.0371506 8.04659459,19.0371506 8.04746429,19.0371506 L19.7982723,18.9946228 C20.1985293,18.9931489 20.5218175,18.6727047 20.520368,18.278853 C20.5188943,17.8858572 20.1947123,17.5682893 19.7956874,17.5682893 Z M21.9044531,6.66068093 C22.0947008,5.84525968 22.0007003,5.16666906 21.6237079,4.64154937 C21.0815443,3.88634214 20.1910644,3.80437689 20.0913142,3.79750682 C20.0737027,3.79629445 20.0558255,3.79565262 20.0384555,3.79577149 L7.72552903,3.83444825 C7.32527207,3.83570815 7.00181477,4.15600977 7.00309516,4.54988519 C7.00437555,4.9437606 7.32969304,5.26263593 7.73016743,5.26075796 L20.0025078,5.22220004 C20.0605847,5.23197027 20.3102863,5.28405435 20.4397996,5.46448252 C20.5233395,5.58084563 20.5587558,5.75621041 20.5466765,5.97583833 C20.5401779,6.00041841 20.5348872,6.02556901 20.5309977,6.05126635 L20.4796127,6.39186911 C20.4723169,6.42091828 20.4645137,6.4503478 20.4560582,6.48025275 C20.4339291,6.55858093 20.4262226,6.63745586 20.4309576,6.71431018 L19.5546104,12.5219343 C19.544488,12.5585429 19.5370472,12.5963401 19.5328678,12.6352783 C19.415796,13.72341 18.926491,13.8594562 18.8498846,13.8741234 L6.29817068,14.7189504 C5.89950817,14.754204 5.60537922,15.1007973 5.64120617,15.49308 C5.67505214,15.8636828 5.99121359,16.1424312 6.36221467,16.1424312 C6.3839331,16.1424312 6.40589314,16.1414804 6.42792562,16.1395311 L18.9894237,15.2938245 C19.105191,15.2837453 19.5319981,15.2238165 19.970522,14.8771282 C20.2257558,14.6753529 20.524644,14.3416915 20.7353539,13.8037113 C20.8074668,13.7109298 20.8574506,13.5994399 20.8761251,13.4757313 L21.9044531,6.66068093 Z" id="Shape" fill="#3D3D45" fill-rule="nonzero"></path>
                    </g>
                </g>
            </g>
        </g>
    </g>
</svg>