<?xml version="1.0" encoding="UTF-8"?>
<svg width="14px" height="14px" viewBox="0 0 14 14" version="1.1" xmlns="http://www.w3.org/2000/svg" xmlns:xlink="http://www.w3.org/1999/xlink">
    <!-- Generator: Sketch 52.5 (67469) - http://www.bohemiancoding.com/sketch -->
    <title>checkbox_ic_choose</title>
    <desc>Created with Sketch.</desc>
    <g id="Page-1" stroke="none" stroke-width="1" fill="none" fill-rule="evenodd">
        <g id="体检预约首页-copy" transform="translate(-77.000000, -508.000000)" fill="#FFFFFF" fill-rule="nonzero">
            <path d="M79,508 L89,508 C90.1045695,508 91,508.895431 91,510 L91,520 C91,521.104569 90.1045695,522 89,522 L79,522 C77.8954305,522 77,521.104569 77,520 L77,510 C77,508.895431 77.8954305,508 79,508 Z M88.5572566,511.139781 C88.1518936,510.764682 87.5192041,510.789216 87.1441051,511.194579 L83.0414891,515.628203 L81.2128288,513.727801 C80.8298885,513.329837 80.1968406,513.317658 79.7988769,513.700598 C79.4009131,514.083539 79.3887341,514.716587 79.7716744,515.11455 L82.3351336,517.778579 C82.3485383,517.79251 82.3623442,517.806049 82.3765338,517.819179 C82.7818968,518.194278 83.4145863,518.169744 83.7896853,517.764381 L88.6120541,512.552933 C88.9871532,512.14757 88.9626195,511.51488 88.5572566,511.139781 Z" id="多选框_ic_choose"></path>
        </g>
    </g>
</svg>